<?xml version="1.0" encoding="utf-8" ?><svg fill="currentColor" xmlns="http://www.w3.org/2000/svg" xmlns:xlink="http://www.w3.org/1999/xlink" width="24" height="24" viewBox="0 0 20 20"><path transform="scale(0.0195312 0.0195312)" d="M390.487 140.222C393.275 139.942 396.754 140.019 399.583 140.018C412.564 140.016 425.546 140.042 438.527 140.047L528.717 140.066L597.943 140.082C613.09 140.048 630.278 139.529 645.289 140.7C704.903 145.35 756.956 166.829 801.608 206.781C851.723 251.95 881.971 315.084 885.768 382.444C886.768 401.254 886.317 422.227 886.317 441.173L886.42 526.261L886.406 596.574C886.41 617.89 886.785 642.415 883.74 663.423C876.543 713.076 854.503 760.472 820.88 797.662C771.084 852.74 710.378 880.044 636.97 883.943C611.443 884.773 584.835 884.433 559.28 884.341L486.843 884.433L423.996 884.195C375.782 883.96 341.995 883.038 296.507 864.018C206.449 826.363 145.155 739.98 140.247 642.389C139.362 624.807 139.865 606.282 139.885 588.477L139.974 498.631L139.876 422.823C139.869 406.261 139.434 387.192 141.093 370.858C146.46 316.471 169.334 265.294 206.276 225.019C255.485 171.057 317.941 143.506 390.487 140.222ZM650.489 657.392L658.688 656.012C664.789 623.867 667.286 589.919 668.476 557.291C668.683 551.597 664.245 544.91 658.238 544.357C647.409 543.359 636.114 544.509 625.222 544.19C602.732 544.474 579.158 543.575 556.79 544.176C553.369 544.879 550.147 546.464 548.303 549.475C544.67 555.404 545.994 568.001 546.003 574.85L546.015 610.928C546.017 624.57 545.634 641.883 546.474 655.658C546.625 658.135 550.03 662.829 552.352 664.022C554.18 664.961 557.07 665.347 559.257 665.298C574.447 664.956 590.023 663.5 605.126 662.152C614.77 661.275 624.406 660.309 634.032 659.254C638.785 658.752 645.927 658.21 650.489 657.392ZM367.748 655.84C391.596 659.209 415.536 661.887 439.54 663.87C448.541 664.577 457.54 665.306 466.568 665.433C482.52 665.657 480.023 649.721 480.026 638.683L479.998 608.784L479.984 574.304C479.97 563.93 482.528 550.971 472.605 545.148C472.572 542.015 466.954 542.384 465.125 543.012C462.817 543.804 461.284 543.341 458.745 544.017C451.52 544.386 442.474 544.146 435.135 544.139L394.118 544.066C389.04 544.052 383.849 543.966 378.813 544.038C373.075 544.265 365.505 543.194 361.239 547.88C357.689 551.779 357.477 556.444 357.777 561.418C359.285 586.347 360.857 611.39 364.292 636.142C365.173 642.488 365.631 649.879 367.748 655.84ZM658.862 477.857C662.299 476.723 665.447 475.36 667.124 471.923C671.827 462.283 661.974 378.067 659.222 366.67C634.363 363.287 609.388 360.81 584.348 359.244C575.846 358.712 563.837 357.643 555.633 358.071C551.604 359.835 548.858 361.608 547.17 365.903C546.516 367.567 546.335 369.148 546.232 370.918C545.287 387.115 546.031 403.775 546.016 420.016C546.002 434.836 545.203 450.141 546.095 464.911C546.223 467.041 546.662 469.007 547.56 470.947C548.682 473.371 550.668 475.844 553.285 476.703C561.391 479.362 602.543 477.821 613.915 477.839C628.77 477.864 644.044 478.707 658.862 477.857ZM367.673 366.588C363.889 374.715 355.854 463.001 358.384 469.68C359.572 472.838 362.027 475.355 365.156 476.62C368.883 478.113 372.478 477.884 376.455 477.906L436.833 477.881C446.95 477.896 457.22 478.082 467.22 477.734C472.394 477.553 479.285 474.331 479.502 468.701C480.749 436.307 479.745 403.484 479.809 371.042C479.831 359.831 471.611 357.683 462.37 358.223C441.088 359.324 419.84 360.997 398.649 363.24C388.811 364.228 377.345 365.217 367.673 366.588ZM381.758 299.028C392.577 298.256 403.86 296.836 414.492 296.212C424.825 295.31 435.175 294.609 445.535 294.111C449.359 293.92 454.786 293.452 458.513 293.474C481.084 293.61 480.529 284.5 479.96 265.095C479.415 246.522 480.533 226.678 479.714 207.817C469.899 207.456 456.754 207.278 446.981 207.705C405.413 210.79 391.626 266.144 381.758 299.028ZM553.165 291.775C558.48 292.818 570.959 293.013 576.867 293.305C591.321 294.138 605.766 295.123 620.199 296.262C624.921 296.622 639.626 297.64 643.668 298.447C638.405 275.257 629.359 248.009 615.706 228.451C598.732 204.138 572.118 207.246 546.281 207.496C544.725 227.744 546.808 250.454 545.989 270.986C545.625 280.103 545.279 285.998 553.165 291.775ZM338.986 806.781C330.551 783.002 321.873 760.586 315.95 735.848C314.459 729.624 311.478 720.022 310.742 713.946C288.762 708.707 267.002 702.583 245.515 695.59C236.044 692.405 226.753 688.231 217.256 685.095C218.699 693.249 223.008 703.71 226.501 711.076C239.97 739.511 260.597 763.958 286.36 782.019C301.737 792.804 320.813 802.179 338.986 806.781ZM728.36 381.346C728.022 386.222 728.961 391.078 729.436 395.959C730.15 403.296 730.841 410.728 731.659 418.053C733.555 435.043 732.955 454.442 735.414 471.065C740.638 476.551 741.719 477.788 749.521 477.856C769.602 478.03 789.685 477.913 809.767 477.96C812.482 477.966 815.116 478.048 817.807 477.642C818.595 453.59 820.43 432.554 802.556 413.467C784.889 394.6 751.925 388.869 728.36 381.346ZM717.508 713.417C711.249 730.817 705.836 752.342 699.696 770.811C697.085 778.576 694.342 786.296 691.466 793.967C690.015 797.828 687.557 803.188 686.709 806.997L687.185 807.445L687.687 807.412C693.264 806.127 700.8 802.912 706.186 800.625C751.308 781.465 787.048 743.247 804.672 697.661C805.553 695.381 808.383 688.962 808.108 687.005L807.12 687.094C800.19 688.626 791.099 692.609 783.987 694.939C769.13 699.914 754.094 704.336 738.909 708.197C732.538 709.879 723.955 712.321 717.508 713.417ZM716.701 309.905C739.151 316.705 762.118 320.849 784.128 329.829C792.142 333.098 800.961 335.363 809.095 338.762C793.244 290.694 763.535 253.288 717.995 230.08C705.506 223.715 698.977 222.044 686.843 217.088C689.141 225.02 692.755 232.975 695.801 240.7C704.749 263.392 710.399 286.444 716.701 309.905ZM218.115 338.053C225.626 335.473 232.705 332.427 240.137 329.818C261.302 322.201 282.887 315.805 304.785 310.661C312.066 308.95 311.884 304.957 313.251 298.034C318.713 270.369 328.826 244.385 338.951 218.224L338.613 217.743C292.72 231.551 254.02 262.709 230.734 304.597C227.559 310.36 217.235 332.536 217.764 337.738L218.115 338.053ZM297.897 382.196C291.053 383.098 282.865 385.517 276.202 387.526C254.701 394.016 232.704 401.563 218.592 420.073C208.594 433.187 207.125 444.791 207.606 460.846C207.783 466.725 207.242 471.926 208.188 477.926C227.885 478.139 247.794 477.701 267.375 477.935C284.071 478.134 291.836 478.517 291.933 458.944C291.969 451.69 292.507 442.532 293.158 435.275C294.241 423.017 295.427 410.769 296.714 398.531C297.152 394.32 298.396 386.376 298.497 382.744L297.897 382.196ZM212.796 544.214C211.116 544.363 209.505 544.296 208.115 545.065C207.285 549.016 207.572 556.265 207.633 560.716C207.849 576.498 206.797 586.207 215.927 600.034C232.178 624.646 266.545 632.906 293.381 640.562C293.43 640.571 293.479 640.58 293.528 640.589C295.715 641.053 295.919 641.541 297.276 640.67C297.774 639.284 295.962 625.876 295.686 623.102C294.552 611.993 293.552 600.871 292.688 589.738C292.083 581.2 292.571 557.119 289.583 550.717C288.214 547.784 286.383 546.466 283.362 545.513C275.894 543.155 223.242 543.503 212.796 544.214ZM639.848 726.213C620.254 728.146 600.638 729.859 581.005 731.354C572.868 731.944 564.383 731.589 556.42 732.679C543.277 734.478 545.965 752.039 545.985 761.492L546.036 794.627C546.043 798.552 545.368 813.091 546.594 815.627C547.864 816.322 547.902 816.226 549.375 816.372C571.485 816.572 592.263 819.776 609.577 801.999C627.6 783.494 634.855 751.997 642.676 727.859C642.883 727.219 642.509 726.78 642.233 726.223L639.848 726.213ZM746.016 544.177C737.657 546.144 734.813 548.965 734.736 557.604C734.48 586.004 729.772 613.847 727.505 641.9C744.139 638.324 766.58 631.412 781.866 623.898C820.22 603.669 818.653 582.842 818.011 544.606C811.67 543.831 804.065 544.028 797.612 544.131C780.477 544.405 763.12 543.798 746.016 544.177ZM381.97 725.444C384.005 734.192 387.007 743.478 389.876 752.039C397.161 773.777 405.265 796.376 425.588 809.289C438.801 817.684 449.409 816.421 464.384 816.399C468.638 816.393 475.948 816.51 479.911 815.957C480.01 801.45 480.03 786.943 479.972 772.436C479.988 763.526 480.093 754.457 479.77 745.516C479.22 730.317 467.017 732.08 454.862 731.679C430.599 730.877 406.253 727.396 381.97 725.444Z"/><path transform="scale(0.0195312 0.0195312)" d="M458.745 544.017C461.284 543.341 462.817 543.804 465.125 543.012C466.954 542.384 472.572 542.015 472.605 545.148C468.467 544.006 463.304 544.385 458.745 544.017Z"/></svg>