<?xml version="1.0" encoding="utf-8" ?><svg xmlns="http://www.w3.org/2000/svg" xmlns:xlink="http://www.w3.org/1999/xlink" width="42" height="42" viewBox="0 0 1024 1024"><path fill="currentColor" d="M368.913 141.251C388.526 140.82 408.942 141.102 428.628 141.086L543.975 141.073L618.599 141.05C652.308 141.049 679.607 140.003 712.807 147.662C747.946 155.581 780.541 172.177 807.617 195.934C856.98 239.694 880.216 296.263 883.853 361.452C884.777 378.016 884.155 397.284 884.148 414L884.206 505.144L884.227 596.314C884.387 633.84 885.887 674.75 877.327 711.344C869.152 747.916 851.791 781.802 826.884 809.801C794.766 845.351 752.007 869.553 704.996 878.79C689.114 881.919 675.151 882.961 659.123 883.87C601.454 884.773 541.689 883.991 483.905 883.987L407.372 883.981C389.404 883.979 372.858 884.04 354.918 882.993C300.414 879.811 250.015 860.124 209.977 822.403C174.894 789.17 150.631 741.311 143.991 693.417C139.538 661.291 141.065 624.561 141.101 591.789L141.15 485.649L141.104 405.744C141.072 388.798 140.791 371.373 141.806 354.461C145.139 298.965 164.909 249.222 203.632 208.715C236.157 175.265 278.433 152.966 324.407 145.012C339.931 142.325 353.164 141.601 368.913 141.251ZM520.875 750.082L591.906 750.21C627.801 750.429 664.811 756.096 692.395 728.39C712.808 707.887 716.939 682.294 716.817 654.599C717.038 600.041 695.007 547.751 655.81 509.801C617.703 472.103 566.275 450.942 512.673 450.905C510.894 450.918 506.223 450.931 504.583 451.226C387.935 456.369 300.967 554.854 309.535 670.251C311.421 695.655 316.477 713.412 335.84 731.134C345.157 739.694 356.586 745.617 368.952 748.293C385.769 752.036 406.59 750.343 423.971 750.087C455.929 749.617 489.085 750.781 520.875 750.082ZM315.414 521.656C339.553 487.429 351.316 476.567 387.863 455.339C398.855 389.639 460.684 345.177 526.442 351.639C559.503 356.37 583.877 368.712 606.422 393.713C623.529 412.685 631.378 430.242 637.296 454.81C642.654 458.267 648.272 461.331 653.545 464.859C674.106 478.62 692.938 495.361 705.846 516.706C707.095 518.771 708.34 520.973 709.663 522.983C720.52 465.009 712.521 412.911 678.702 363.617C648.224 319.345 601.29 289.119 548.376 279.684C534.645 277.14 513.863 275.219 499.887 276.785C442.249 282.25 393.615 304.735 356.232 349.852C322.804 390.636 306.803 442.955 311.7 495.461C312.393 502.921 313.955 514.274 315.414 521.656Z"/><path fill="currentColor" d="M507.157 526.711C507.909 526.638 508.662 526.583 509.416 526.548C577.841 523.553 637.463 582.081 639.791 649.202C640.055 656.818 638.645 664.234 633.118 669.857C630.18 672.866 626.427 674.952 622.319 675.858C615.819 677.235 592.372 676.951 584.897 676.954L519.125 676.994L445.453 676.992C408.094 676.989 376.808 683.788 386.499 632.534C390.76 609.249 401.4 587.604 417.232 570.007C441.013 543.073 471.373 528.913 507.157 526.711Z"/></svg>