<?xml version="1.0" encoding="utf-8" ?><svg fill="currentColor" xmlns="http://www.w3.org/2000/svg" xmlns:xlink="http://www.w3.org/1999/xlink" width="24" height="24" viewBox="0 0 20 20"><path transform="scale(0.0195312 0.0195312)" d="M129.072 441.663C129.107 428.867 133.365 402.591 136.286 389.84C151.54 323.255 182.276 271.915 230.328 224.152C292.033 163.354 375.137 129.206 461.762 129.056C550.509 129.274 636.748 162.226 699.636 225.527C762.902 288.55 798.219 374.332 797.665 463.63C797.391 529.34 781.102 581.911 748.535 638.506C753.964 641.98 758.643 646.543 763.675 650.423C772.282 657.057 780.597 664.402 789.055 671.071L837.612 709.583C847.027 716.861 856.319 724.296 865.486 731.883C871.173 736.6 876.484 740.64 881.395 746.294C928.173 800.151 900.778 886.512 830.1 901.107C804.918 906.157 778.76 901.041 757.338 886.874C743.865 877.83 732.078 862.093 721.71 849.487L700.036 823.421L655.61 770.196C651.985 765.877 639.282 749.789 636.619 747.376C623.103 755.716 609.856 763.42 595.331 769.944C531.053 798.814 455.439 805.462 386.927 789.306C300.425 768.942 225.544 715.071 178.737 639.531C153.884 599.638 137.782 554.924 131.495 508.346C130.92 504.324 128.659 485.969 129.027 482.256C129.992 479.63 129.749 467.884 129.493 464.54C129.026 458.431 130.711 446.614 129.072 441.663ZM472.74 704.753C606.333 699.522 710.368 586.945 705.064 453.355C699.76 319.766 587.126 215.791 453.539 221.168C320.055 226.541 216.179 339.069 221.479 472.556C226.779 606.043 339.25 709.98 472.74 704.753Z"/><path transform="scale(0.0195312 0.0195312)" d="M461.079 277.426L461.788 277.433C468.616 311.887 475.953 346.614 497.438 375.458C499.807 378.638 501.536 383.957 505.667 384.619C540.882 429.152 583.776 452.722 640.329 459.865C643.156 460.222 649.477 460.967 651.932 460.962C653.135 461.303 654.346 461.614 655.564 461.896C602.588 465.932 547.881 490.055 512.839 530.699C507.57 536.809 503.486 543.085 498.7 549.456L497.535 549.431C493.673 554.115 492.336 557.704 489.458 562.604C478.68 580.955 472.211 599.554 468.232 620.413C467.132 626.182 465.794 628.315 466.422 634.542L466.497 635.223C465.558 641.493 463.803 654.03 464.035 660.152L462.978 658.839C463.149 655.933 462.135 648.495 461.701 645.289C458.743 622.405 452.477 600.071 443.099 578.987C421.376 530.813 381.161 493.422 331.535 475.258C331.561 475.017 331.594 474.777 331.634 474.538C331.937 472.802 328.734 472.268 327.045 473.17L326.331 473.506L318.93 471.186C319.503 467.737 315.78 468.621 313.743 469.727C303.23 466.03 280.869 462.624 269.897 461.882L268.756 460.963C271.927 461.157 281.219 460.324 284.593 459.924C321.929 455.497 359.315 440.599 388.656 417.119C432.652 381.909 454.453 332.161 461.079 277.426Z"/><path transform="scale(0.0195312 0.0195312)" d="M462.558 264.244C462.893 264.619 464.185 277.828 464.471 279.904C466.41 294.41 469.54 308.733 473.83 322.725C481.126 346.556 490.489 364.836 505.667 384.619C501.536 383.957 499.807 378.638 497.438 375.458C475.953 346.614 468.616 311.887 461.788 277.433L461.079 277.426C461.017 276.067 462.034 267.304 462.21 265.461C462.5 264.872 462.492 264.909 462.558 264.244Z"/><path transform="scale(0.0195312 0.0195312)" d="M466.497 635.223L466.422 634.542C465.794 628.315 467.132 626.182 468.232 620.413C472.211 599.554 478.68 580.955 489.458 562.604C492.336 557.704 493.673 554.115 497.535 549.431L498.7 549.456C494.145 557.329 489.204 565.394 485.23 573.531C477.169 590.035 472.064 608.209 468.263 626.138C467.635 629.102 467.23 632.335 466.497 635.223Z"/><path transform="scale(0.0195312 0.0195312)" d="M313.743 469.727C315.78 468.621 319.503 467.737 318.93 471.186C317.02 470.51 315.728 470.138 313.743 469.727Z"/><path transform="scale(0.0195312 0.0195312)" d="M326.331 473.506L327.045 473.17C328.734 472.268 331.937 472.802 331.634 474.538C331.594 474.777 331.561 475.017 331.535 475.258C329.815 474.63 328.08 474.046 326.331 473.506Z"/><path transform="scale(0.0195312 0.0195312)" d="M462.978 658.839L464.035 660.152C464.043 660.747 464.237 663.26 463.682 663.588C462.939 663.213 462.992 659.542 462.978 658.839Z"/><path  transform="scale(0.0195312 0.0195312)" d="M265.414 460.81C266.575 460.891 267.591 460.984 268.756 460.963L269.897 461.882C269.006 461.952 268.115 462.032 267.225 462.12C266.655 461.691 266.007 461.178 265.414 460.81Z"/><path transform="scale(0.0195312 0.0195312)" d="M651.932 460.962C651.945 460.962 656.226 460.711 656.433 461.601C656.395 461.653 656.358 461.705 656.32 461.756C656.068 461.803 655.816 461.849 655.564 461.896C654.346 461.614 653.135 461.303 651.932 460.962Z"/><path  transform="scale(0.0195312 0.0195312)" d="M267.225 462.12L266.663 462.04C266.396 462.005 264.099 461.915 264.158 461.253C264.394 460.917 265.1 460.879 265.414 460.81C266.007 461.178 266.655 461.691 267.225 462.12Z"/><path transform="scale(0.0195312 0.0195312)" d="M129.072 441.663C130.711 446.614 129.026 458.431 129.493 464.54C129.749 467.884 129.992 479.63 129.027 482.256C127.95 474.737 128.258 449.358 129.072 441.663Z"/></svg>